Patient4_TMGait_0pt3_02_left_12_GRF.mot
version=1
nRows=32
nColumns=19
inDegrees=no
endheader
time	F1x	F1y	F1z	M1x	M1y	M1z	F2x	F2y	F2z	M2x	M2y	M2z	EC1x	EC1y	EC1z	EC2x	EC2y	EC2z
23.34	-7.0675	4.7857	-0.63386	-1.5336	-1.8475	9.3187	5.5304	649.1783	-47.1335	216.969	46.9762	628.1871	-0.0592	0.0182	-0.0073	-0.0462	0.0165	0.9585
23.3593	-4.4943	3.8547	-0.28072	-1.2707	-1.3085	6.9086	6.8327	651.194	-41.1557	219.267	41.3101	630.0454	-0.0592	0.0182	-0.0073	-0.0462	0.0165	0.9585
23.3786	-2.3112	3.1084	-0.016954	-1.0575	-0.81722	4.9063	8.0356	659.0027	-35.309	224.0149	35.7889	636.5924	-0.0592	0.0182	-0.0073	-0.0462	0.0165	0.9585
23.3979	-0.66615	2.6116	0.15511	-0.91498	-0.42114	3.4537	8.9513	674.8488	-30.3885	231.8933	31.1744	649.9393	-0.0592	0.0182	-0.0073	-0.0462	0.0165	0.9585
23.4171	0.42107	2.3672	0.24349	-0.84643	-0.1337	2.5517	9.4465	700.0395	-27.0624	243.2053	28.1032	671.4421	-0.0592	0.0182	-0.0073	-0.0462	0.0165	0.9585
23.4364	1.0041	2.3413	0.26132	-0.84473	0.051355	2.1229	9.4553	734.3722	-25.7738	257.7059	26.9946	701.0794	-0.0592	0.0182	-0.0073	-0.0462	0.0165	0.9585
23.4557	1.1712	2.4777	0.22244	-0.89509	0.15131	2.0511	8.9783	775.9901	-26.6651	274.5817	27.9792	737.2654	-0.0592	0.0182	-0.0073	-0.0462	0.0165	0.9585
23.475	1.0172	2.6946	0.13539	-0.97373	0.18848	2.1961	8.0791	821.5921	-29.5579	292.5482	30.8685	777.0275	-0.0592	0.0182	-0.0073	-0.0462	0.0165	0.9585
23.4943	0.63228	2.8889	0.0046158	-1.0462	0.19067	2.4018	6.924	866.9859	-33.9905	310.0535	35.167	816.5176	-0.0592	0.0182	-0.0073	-0.0462	0.0165	0.9585
23.5136	0.1093	2.925	-0.16453	-1.0641	0.1857	2.492	5.7673	907.6422	-39.3449	325.4702	40.1977	851.5454	-0.0592	0.0182	-0.0073	-0.0462	0.0165	0.9585
23.5329	-0.43919	2.6243	-0.36307	-0.96237	0.20154	2.2529	4.8748	939.1953	-44.9871	337.2626	45.2662	878.0762	-0.0592	0.0182	-0.0073	-0.0462	0.0165	0.9585
23.5521	-0.86397	1.7655	-0.57303	-0.65843	0.27163	1.4338	4.4564	958.0148	-50.3464	344.1809	49.7638	892.789	-0.0592	0.0182	-0.0073	-0.0462	0.0165	0.9585
23.5714	-1.0274	0.15675	-0.76844	-0.078284	0.41797	-0.18189	4.6609	961.7846	-54.9498	345.4614	53.2054	893.609	-0.0592	0.0182	-0.0073	-0.0462	0.0165	0.9585
23.5907	-0.92289	-2.2175	-0.93697	0.7846	0.63147	-2.6195	5.5934	949.9093	-58.4368	340.968	55.2376	880.0557	-0.0592	0.0182	-0.0073	-0.0462	0.0165	0.9585
23.61	-0.66658	-5.1325	-1.0764	1.8471	0.86867	-5.6424	7.2929	923.6389	-60.5833	331.2274	55.666	853.3463	-0.0592	0.0182	-0.0073	-0.0462	0.0165	0.9585
23.6293	-0.40543	-8.1263	-1.1679	2.9384	1.0574	-8.7575	9.6772	885.8112	-61.3369	317.3223	54.5048	816.16	-0.0592	0.0182	-0.0073	-0.0462	0.0165	0.9585
23.6486	-0.2432	-10.4702	-1.1515	3.7897	1.0998	-11.202	12.5541	840.3481	-60.8241	300.7036	51.9776	772.1568	-0.0592	0.0182	-0.0073	-0.0462	0.0165	0.9585
23.6679	-0.23154	-11.083	-0.92194	4.003	0.86806	-11.8523	15.6634	791.5809	-59.3194	282.9489	48.4726	725.3403	-0.0592	0.0182	-0.0073	-0.0462	0.0165	0.9585
23.6871	-0.38002	-8.45	-0.32753	3.023	0.201	-9.1307	18.6839	743.4879	-57.1697	265.4935	44.4655	679.3543	-0.0592	0.0182	-0.0073	-0.0462	0.0165	0.9585
23.7064	-0.65341	-0.60798	0.82309	0.13054	-1.0868	-0.99403	21.2692	699.0654	-54.705	249.4142	40.4205	636.9167	-0.0592	0.0182	-0.0073	-0.0462	0.0165	0.9585
23.7257	-0.9628	14.7474	2.7387	-5.5167	-3.1785	14.9531	23.1145	659.977	-52.1529	235.3089	36.6879	599.5165	-0.0592	0.0182	-0.0073	-0.0462	0.0165	0.9585
23.745	-1.1807	39.9795	5.6035	-14.7793	-6.216	41.1715	23.9842	626.3993	-49.5981	223.2422	33.4522	567.2963	-0.0592	0.0182	-0.0073	-0.0462	0.0165	0.9585
23.7643	-1.2526	77.043	9.5116	-28.3657	-10.2775	79.6992	23.7217	597.1163	-47.0074	212.7781	30.7526	539.1554	-0.0592	0.0182	-0.0073	-0.0462	0.0165	0.9585
23.7836	-1.3658	126.736	14.4027	-46.5591	-15.3749	131.364	22.258	569.8959	-44.2771	203.114	28.5249	513.096	-0.0592	0.0182	-0.0073	-0.0462	0.0165	0.9585
23.8029	-2.1975	187.7509	20.0552	-68.8672	-21.5288	194.7965	19.6563	542.0683	-41.2889	193.2839	26.6357	486.7359	-0.0592	0.0182	-0.0073	-0.0462	0.0165	0.9585
23.8221	-4.4353	256.1691	26.2065	-93.833	-28.7103	265.8879	16.1921	511.1183	-37.9744	182.3721	24.9127	457.8211	-0.0592	0.0182	-0.0073	-0.0462	0.0165	0.9585
23.8414	-7.9119	327.0822	32.5654	-119.6413	-36.5583	339.4012	12.3325	475.2567	-34.3578	169.7199	23.194	424.7356	-0.0592	0.0182	-0.0073	-0.0462	0.0165	0.9585
23.8607	-11.8962	396.6722	38.7478	-144.8852	-44.4083	411.1818	8.5775	433.8613	-30.5467	155.0825	21.3751	386.9073	-0.0592	0.0182	-0.0073	-0.0462	0.0165	0.9585
23.88	-15.5268	462.0224	44.3603	-168.5019	-51.5313	478.0424	5.3115	387.5234	-26.671	138.6509	19.4058	344.8554	-0.0592	0.0182	-0.0073	-0.0462	0.0165	0.9585
23.8993	-18.1306	520.6425	49.0923	-189.5941	-57.3503	537.3091	2.7386	337.9121	-22.87	121.0071	17.2995	300.0662	-0.0592	0.0182	-0.0073	-0.0462	0.0165	0.9585
23.9186	-19.3366	570.542	52.7538	-207.4505	-61.5269	586.9197	0.89654	287.5541	-19.3144	103.0481	15.1547	254.7881	-0.0592	0.0182	-0.0073	-0.0462	0.0165	0.9585
23.9379	-19.0297	610.5206	55.2429	-221.6511	-63.9162	625.7334	-0.29943	239.5351	-16.1807	85.8795	13.1261	211.7492	-0.0592	0.0182	-0.0073	-0.0462	0.0165	0.9585
